<svg width="180" height="60" viewBox="0 0 180 60" fill="none" xmlns="http://www.w3.org/2000/svg">
<path d="M67.6684 59.2191H22.3279C22.1324 59.2191 22.0298 58.9871 22.1613 58.8425L24.0039 56.8159C24.0466 56.7689 24.1071 56.7422 24.1705 56.7422H65.6415C65.7012 56.7422 65.7585 56.7659 65.8007 56.8081L67.8276 58.8347C67.9695 58.9766 67.869 59.2191 67.6684 59.2191Z" fill="#3B82FC"/>
<path d="M67.6684 59.2191H22.3279C22.1324 59.2191 22.0298 58.9871 22.1613 58.8425L24.0039 56.8159C24.0466 56.7689 24.1071 56.7422 24.1705 56.7422H65.6415C65.7012 56.7422 65.7585 56.7659 65.8007 56.8081L67.8276 58.8347C67.9695 58.9766 67.869 59.2191 67.6684 59.2191Z" fill="#3B82FC"/>
<path d="M157.746 59.2191H112.405C112.21 59.2191 112.107 58.9871 112.239 58.8425L114.081 56.8159C114.124 56.7689 114.185 56.7422 114.248 56.7422H155.719C155.779 56.7422 155.836 56.7659 155.878 56.8081L157.905 58.8347C158.047 58.9766 157.946 59.2191 157.746 59.2191Z" fill="#6CDA43"/>
<path d="M112.726 56.7496H67.385C67.1896 56.7496 67.0869 56.9816 67.2184 57.1263L69.0611 59.1529C69.1037 59.1998 69.1642 59.2266 69.2277 59.2266H110.699C110.758 59.2266 110.816 59.2028 110.858 59.1606L112.885 57.134C113.027 56.9922 112.926 56.7496 112.726 56.7496Z" fill="#F86523"/>
<path fill-rule="evenodd" clip-rule="evenodd" d="M0.196693 17.5635C0.146697 17.3235 0.116699 16.8636 0.116699 16.1838C0.116699 15.504 0.246689 14.7841 0.496668 14.0243H0.72665C0.706651 14.2143 0.696652 14.3942 0.696652 14.5842C0.696652 15.6239 1.00663 16.4837 1.63658 17.1636C2.26652 17.8534 3.09646 18.1933 4.13637 18.1933C5.17629 18.1933 6.08621 17.8734 6.77616 17.2236C7.4661 16.5737 7.80607 15.7639 7.80607 14.7941C7.80607 13.8244 7.4761 13.0245 6.81615 12.4147L1.92655 7.89575C1.00663 7.04595 0.546664 6.01619 0.546664 4.81647C0.546664 3.61675 0.946632 2.577 1.75657 1.7272C2.5665 0.867399 3.65641 0.4375 5.0263 0.4375C5.67625 0.4375 6.40619 0.517481 7.21612 0.687441H8.20604V3.81671H7.97606C7.97606 3.01689 7.69608 2.38704 7.14613 1.90716C6.59617 1.42727 5.88623 1.19732 5.0163 1.19732C4.14637 1.19732 3.42643 1.48725 2.83648 2.06712C2.24653 2.64698 1.95655 3.36681 1.95655 4.22661C1.95655 5.08641 2.29652 5.83623 2.97647 6.46609L7.99606 11.105C8.84599 11.8848 9.26595 12.9546 9.26595 14.3142C9.26595 15.6739 8.83599 16.7837 7.96606 17.6635C7.09613 18.5333 5.94623 18.9732 4.50634 18.9732C3.7564 18.9732 2.96647 18.8632 2.12654 18.6332C1.2866 18.4033 0.636657 18.0534 0.176694 17.5735L0.196693 17.5635Z" fill="black"/>
<path fill-rule="evenodd" clip-rule="evenodd" d="M36.7581 1.05805C36.3381 1.05805 35.9681 1.20802 35.6582 1.50795C35.3482 1.80788 35.1882 2.16779 35.1782 2.58769V15.7246C35.1782 16.7044 35.2382 17.6442 35.3582 18.524L35.4082 18.9839H35.1782L21.2993 4.16732V16.8444C21.3193 17.4342 21.5793 17.8841 22.0893 18.164C22.3292 18.304 22.5792 18.364 22.8492 18.364H23.3292V18.6139H18.0796V18.364H18.5596C18.9795 18.364 19.3495 18.214 19.6595 17.9141C19.9694 17.6142 20.1194 17.2443 20.1194 16.8044V3.59746C20.1194 2.5577 20.0594 1.63792 19.9394 0.818107L19.8894 0.408203H20.1394L34.0183 15.2247V2.60769C33.9983 2.16779 33.8383 1.79788 33.5383 1.49795C33.2284 1.19802 32.8684 1.04805 32.4384 1.04805H31.9585V0.798112H37.208V1.04805H36.7481L36.7581 1.05805Z" fill="black"/>
<path fill-rule="evenodd" clip-rule="evenodd" d="M46.2062 18.3537C46.6461 18.3537 47.0261 18.1937 47.3361 17.8838C47.6461 17.5738 47.816 17.1939 47.836 16.754V2.49738C47.7861 2.08748 47.6061 1.74756 47.3061 1.46763C46.9961 1.18769 46.6361 1.04772 46.2062 1.04772H45.8962L45.8662 0.797783H53.3256C53.8556 0.797783 54.4255 0.747794 55.0455 0.647818C55.6654 0.547841 56.1054 0.447865 56.3554 0.337891V3.54714H56.1054V3.08725C56.1054 2.67734 55.9654 2.32742 55.6854 2.04749C55.4054 1.75756 55.0655 1.60759 54.6755 1.5876H49.4759V9.45575H53.7756C54.1155 9.43576 54.4055 9.31579 54.6455 9.07584C54.8855 8.8359 55.0055 8.54597 55.0055 8.18605V7.82613H55.2554V11.8452H55.0055V11.4653C55.0055 11.1254 54.8955 10.8354 54.6655 10.5955C54.4355 10.3555 54.1555 10.2356 53.8156 10.2156H49.4859V17.8238H53.1256C54.3855 17.8238 55.3454 17.5439 56.0054 16.984C56.6653 16.4241 57.2153 15.5943 57.6652 14.4846H57.9152L56.4353 18.6136H45.8662V18.3637H46.1962L46.2062 18.3537Z" fill="black"/>
<path fill-rule="evenodd" clip-rule="evenodd" d="M146.238 42.1795C146.484 42.1795 146.697 42.0888 146.871 41.9132C147.045 41.7375 147.14 41.5222 147.151 41.2729V33.1927C147.123 32.9604 147.022 32.7677 146.854 32.609C146.68 32.4504 146.479 32.3711 146.238 32.3711H146.064L146.047 32.2294H150.23C150.527 32.2294 150.846 32.2011 151.194 32.1444C151.542 32.0877 151.788 32.0311 151.928 31.9688V33.7876H151.788V33.527C151.788 33.2947 151.71 33.0964 151.553 32.9377C151.396 32.7734 151.205 32.6884 150.987 32.677H148.071V37.1364H150.482C150.673 37.1251 150.835 37.0571 150.97 36.9211C151.104 36.7851 151.172 36.6208 151.172 36.4168V36.2128H151.312V38.4907H151.172V38.2754C151.172 38.0827 151.11 37.9184 150.981 37.7824C150.852 37.6464 150.695 37.5784 150.504 37.5671H148.077V41.8792H150.117C150.824 41.8792 151.362 41.7205 151.732 41.4032C152.102 41.0859 152.411 40.6156 152.663 39.9866H152.803L151.973 42.3268H146.047V42.1852H146.232L146.238 42.1795Z" fill="black"/>
<path fill-rule="evenodd" clip-rule="evenodd" d="M83.7217 17.8634H83.9216V18.1134H78.1921V17.8634H78.4221C78.7821 17.8634 79.0421 17.7534 79.222 17.5335C79.402 17.3135 79.492 17.1036 79.492 16.9036C79.492 16.7037 79.462 16.5037 79.392 16.3138L77.7622 12.1048H70.8827L69.1729 16.3338C69.1029 16.5337 69.0729 16.7237 69.0729 16.9136C69.0729 17.1036 69.1629 17.3135 69.3428 17.5335C69.5228 17.7534 69.7928 17.8634 70.1428 17.8634H70.3728V18.1134H65.2532V17.8634H65.4832C65.9031 17.8634 66.3231 17.7334 66.7331 17.4635C67.143 17.2036 67.473 16.8137 67.723 16.3038L73.4825 2.9869C74.1125 1.64722 74.4224 0.797416 74.4224 0.4375H74.6524L81.4819 16.3038C81.7218 16.8137 82.0418 17.2036 82.4518 17.4635C82.8617 17.7234 83.2817 17.8634 83.7217 17.8634ZM71.1927 11.3549H77.4522L74.3924 3.4068L71.1827 11.3549H71.1927Z" fill="black"/>
<path fill-rule="evenodd" clip-rule="evenodd" d="M96.3594 17.8634H96.6894V18.1133H91.1099V17.8634H91.4398C91.8798 17.8634 92.2598 17.7034 92.5697 17.3935C92.8797 17.0836 93.0497 16.7037 93.0697 16.2738V2.25707C93.0497 1.81718 92.8897 1.44726 92.5697 1.14733C92.2598 0.847404 91.8798 0.697439 91.4398 0.697439H91.1099V0.447498H96.6894V0.697439H96.3594C95.9195 0.697439 95.5395 0.847404 95.2295 1.14733C94.9195 1.44726 94.7496 1.81718 94.7296 2.25707V16.2738C94.7296 16.7137 94.8896 17.0836 95.2095 17.3935C95.5295 17.7034 95.9095 17.8634 96.3594 17.8634ZM106.599 18.1133H105.499C103.769 18.1133 102.489 17.6335 101.679 16.6737L95.5395 9.32541L101.549 1.84717C101.689 1.67721 101.749 1.52724 101.749 1.39727C101.749 1.26731 101.719 1.14733 101.669 1.04736C101.529 0.797415 101.289 0.667446 100.929 0.667446H100.679V0.4375H106.049V0.667446H105.949C104.829 0.667446 103.909 1.06735 103.199 1.85717L97.2194 8.72555L104.169 16.8336C104.849 17.5035 105.659 17.8534 106.589 17.8734V18.1233L106.599 18.1133Z" fill="black"/>
<path fill-rule="evenodd" clip-rule="evenodd" d="M117.956 6.84974C117.896 6.62979 117.926 6.26987 117.926 6.10991C117.926 5.94995 117.926 5.76999 117.946 5.57004C117.966 5.37008 117.996 5.09015 118.056 4.74023C118.116 4.39031 118.216 4.0404 118.376 3.69048C118.536 3.34056 118.716 3.01064 118.926 2.69071C119.136 2.37079 119.396 2.08086 119.726 1.81092C120.056 1.54098 120.416 1.30104 120.806 1.10108C121.646 0.661188 122.676 0.44124 123.876 0.44124C125.456 0.44124 126.896 0.891134 128.125 1.67095L128.935 0.681183C129.185 0.371256 129.635 0.331265 129.945 0.581207C130.255 0.831148 130.295 1.28104 130.045 1.58097L129.255 2.54075C129.495 2.7507 129.715 2.98064 129.925 3.22059C131.455 4.93019 132.105 6.89973 132.105 9.5591C132.105 12.2185 131.115 14.368 129.305 16.1276C127.495 17.8871 125.076 19.0569 122.296 19.0569C120.236 19.0569 118.546 18.447 117.066 17.4273L116.016 18.707C115.766 19.0169 115.316 19.0569 115.006 18.8069C114.697 18.557 114.657 18.1071 114.907 17.8072L115.946 16.5375C115.826 16.4275 115.706 16.3175 115.586 16.2075C113.757 14.458 112.837 12.1885 112.837 9.38914C112.837 7.58956 113.237 5.98994 114.027 4.59027C114.817 3.19059 115.956 2.10085 117.436 1.31104C113.047 4.38032 113.107 11.8486 116.616 15.7277L127.265 2.72071C123.796 0.581207 118.626 1.79092 118.306 6.88973L117.936 6.85973L117.956 6.84974ZM117.686 16.6874C122.986 20.0366 128.425 16.9674 130.115 12.3984C131.205 9.43913 130.335 5.95995 128.415 3.5905L117.686 16.6874Z" fill="black"/>
<path fill-rule="evenodd" clip-rule="evenodd" d="M157.104 1.04486H156.694C156.334 1.04486 156.024 1.15484 155.764 1.38478C155.504 1.61473 155.364 1.89466 155.344 2.23458V12.3122C155.344 14.3018 154.715 15.9014 153.465 17.1211C152.205 18.3408 150.535 18.9507 148.445 18.9507C146.355 18.9507 144.665 18.3408 143.365 17.1311C142.066 15.9214 141.416 14.3217 141.416 12.3322V2.31457C141.416 1.80468 141.196 1.43477 140.756 1.19483C140.556 1.09485 140.326 1.04486 140.066 1.04486H139.656V0.794922H144.825V1.04486H144.415C144.045 1.04486 143.725 1.15484 143.475 1.38478C143.225 1.61473 143.085 1.90466 143.065 2.26458V11.9923C143.065 13.8419 143.565 15.3315 144.555 16.4712C145.545 17.611 146.875 18.1808 148.545 18.1808C150.215 18.1808 151.555 17.641 152.595 16.5612C153.635 15.4815 154.145 14.0718 154.145 12.3222V2.26458C154.125 1.90466 153.995 1.61473 153.735 1.38478C153.485 1.15484 153.165 1.04486 152.795 1.04486H152.385V0.794922H157.094V1.04486H157.104Z" fill="black"/>
<path fill-rule="evenodd" clip-rule="evenodd" d="M179.623 2.71936C179.623 2.31946 179.483 1.96954 179.193 1.66961C178.903 1.37968 178.563 1.21971 178.173 1.19972H173.334V16.3062C173.354 16.7461 173.514 17.116 173.834 17.4159C174.144 17.7158 174.524 17.8658 174.964 17.8658H175.294V18.1158H169.714V17.8658H170.044C170.484 17.8658 170.864 17.7158 171.174 17.4159C171.484 17.116 171.654 16.7561 171.674 16.3362V1.20972H166.834C166.424 1.22971 166.084 1.37968 165.804 1.67961C165.524 1.96954 165.385 2.31946 165.385 2.72936V3.15926L165.135 3.18925V0C165.385 0.0999766 165.834 0.199953 166.454 0.29993C167.084 0.399906 167.664 0.449894 168.184 0.449894H176.794C177.624 0.449894 178.313 0.389909 178.873 0.259939C179.423 0.12997 179.763 0.0499883 179.883 0V3.17925L179.633 3.14926V2.71936H179.623Z" fill="black"/>
<path fill-rule="evenodd" clip-rule="evenodd" d="M62.0914 32.8579H61.1725V41.2947C61.1725 41.5426 61.2628 41.7492 61.4351 41.9227C61.6074 42.0963 61.8289 42.1872 62.0832 42.1872H62.2555L62.2719 42.3276H59.1296V42.1872H59.3183C59.5645 42.1872 59.7778 42.1045 59.9583 41.931C60.1388 41.7575 60.229 41.5509 60.2372 41.3112V33.4528C60.229 33.2049 60.1306 32.9984 59.9583 32.8248C59.7778 32.6513 59.5727 32.5604 59.3183 32.5604H59.1296V32.4199H63.0021C63.8718 32.4199 64.5527 32.6596 65.0532 33.1388C65.5537 33.6181 65.7998 34.2379 65.7998 34.9898C65.7998 35.7418 65.5619 36.4028 65.0942 36.9565C64.6184 37.5101 64.0441 37.7828 63.3631 37.7828C63.5026 37.8489 63.6749 37.9811 63.8718 38.1712C64.0687 38.3612 64.241 38.5678 64.3968 38.7744C65.2173 39.9395 65.7506 40.6502 66.0049 40.9229C66.251 41.1956 66.4315 41.3773 66.5382 41.4765C66.6448 41.5757 66.7597 41.6748 66.8828 41.7657C67.0058 41.8566 67.1289 41.9393 67.252 41.9888C67.5309 42.121 67.8263 42.1872 68.138 42.1872V42.3276H67.3504C66.9402 42.3276 66.5546 42.2533 66.2018 42.1045C65.849 41.9558 65.5865 41.807 65.406 41.65C65.2255 41.493 65.0778 41.3443 64.9465 41.1956C64.8153 41.0468 64.4625 40.5593 63.88 39.733C63.2975 38.8984 62.9611 38.4273 62.8626 38.3117C62.7642 38.196 62.6657 38.0803 62.5591 37.9646C62.2555 37.6423 61.9437 37.4853 61.6402 37.4853V37.3449C61.714 37.3531 61.8207 37.3614 61.9437 37.3614C62.0668 37.3614 62.2227 37.3614 62.4032 37.3449C63.5846 37.3201 64.3312 36.8243 64.643 35.874C64.7004 35.6839 64.725 35.5104 64.725 35.3451V35.0229C64.7086 34.3866 64.5363 33.8825 64.2246 33.4942C63.9128 33.1058 63.4862 32.8992 62.9529 32.8744C62.7232 32.8661 62.436 32.8579 62.0914 32.8579Z" fill="black"/>
<path fill-rule="evenodd" clip-rule="evenodd" d="M73.713 42.1911C73.9584 42.1911 74.1711 42.1002 74.351 41.9266C74.531 41.7531 74.621 41.5383 74.6291 41.2986V33.4567C74.621 33.2088 74.5228 33.0023 74.351 32.8287C74.1711 32.6552 73.9666 32.5643 73.713 32.5643H73.5249V32.4238H76.6577V32.5643H76.4695C76.126 32.5643 75.8642 32.713 75.6843 33.0023C75.6025 33.1427 75.5534 33.2915 75.5534 33.4567V41.8936H77.5983C78.3017 41.8936 78.8416 41.7366 79.2097 41.4226C79.5778 41.1086 79.8886 40.6458 80.1421 40.0343H80.2812L79.4551 42.3315H73.5249V42.1911H73.713Z" fill="black"/>
<path fill-rule="evenodd" clip-rule="evenodd" d="M90.9625 32.4321C92.4745 32.4321 93.702 32.8866 94.6449 33.7955C95.5879 34.7045 96.0594 35.9027 96.0594 37.3818C96.0594 38.8609 95.5879 40.0591 94.6449 40.9681C93.702 41.8771 92.4745 42.3315 90.9625 42.3315H86.1501V42.1911H86.3371C86.581 42.1911 86.7923 42.1002 86.9712 41.9266C87.15 41.7531 87.2394 41.5383 87.2476 41.2986V33.3658C87.2476 33.1427 87.1581 32.9444 86.9712 32.7957C86.7842 32.6387 86.5729 32.5643 86.3371 32.5643H86.1664L86.1501 32.4238H90.9625V32.4321ZM88.1661 32.8535V41.9184H90.9625C91.7591 41.9184 92.4582 41.7283 93.0679 41.3482C93.6776 40.9681 94.1491 40.4392 94.4905 39.7534C94.8238 39.0675 94.9945 38.2825 94.9945 37.3818C94.9945 36.0184 94.6205 34.9276 93.8808 34.093C93.1411 33.2584 92.1656 32.8453 90.9625 32.8453H88.1661V32.8535Z" fill="black"/>
<path fill-rule="evenodd" clip-rule="evenodd" d="M113.633 32.3425H113.518C113.164 32.3425 112.852 32.4671 112.58 32.7246C112.424 32.8575 112.317 33.0237 112.251 33.223L109.865 40.7486C109.676 41.3467 109.569 41.87 109.553 42.3268H109.421L106.492 34.1866L104.304 40.7486C104.123 41.3384 104.024 41.8617 104 42.3268H103.868L100.602 33.2064C100.487 32.924 100.306 32.708 100.067 32.5585C99.8285 32.409 99.5817 32.3342 99.3349 32.3342H99.2197V32.193H102.412V32.3342H102.28C102.083 32.3342 101.926 32.4007 101.828 32.5253C101.729 32.6499 101.68 32.7745 101.68 32.8908C101.68 33.007 101.696 33.1067 101.721 33.2064L103.909 40.1422L106.583 31.9688L106.714 31.9854L109.544 39.8598L111.469 33.1981C111.494 33.0901 111.511 32.9904 111.511 32.8741C111.511 32.7579 111.461 32.6499 111.371 32.5253C111.272 32.4007 111.124 32.3425 110.927 32.3425H110.795V32.2013H113.625V32.3425H113.633Z" fill="black"/>
<path fill-rule="evenodd" clip-rule="evenodd" d="M120.141 42.1911C120.424 42.1911 120.668 42.1002 120.875 41.9266C121.082 41.7531 121.186 41.5383 121.195 41.2986V33.4402C121.186 33.1923 121.073 32.9857 120.875 32.8205C120.668 32.6469 120.433 32.5643 120.141 32.5643H119.925V32.4238H123.528V32.5643H123.312C123.03 32.5643 122.785 32.6469 122.578 32.8205C122.371 32.994 122.268 33.2006 122.258 33.4402V41.2986C122.258 41.5465 122.362 41.7531 122.569 41.9266C122.776 42.1002 123.02 42.1911 123.312 42.1911H123.528V42.3315H119.925V42.1911H120.141Z" fill="black"/>
<path fill-rule="evenodd" clip-rule="evenodd" d="M134.434 32.4321C136.014 32.4321 137.298 32.8866 138.284 33.7955C139.269 34.7045 139.762 35.9027 139.762 37.3818C139.762 38.8609 139.269 40.0591 138.284 40.9681C137.298 41.8771 136.014 42.3315 134.434 42.3315H129.403V42.1911H129.598C129.853 42.1911 130.074 42.1002 130.261 41.9266C130.448 41.7531 130.541 41.5383 130.55 41.2986V33.3658C130.55 33.1427 130.456 32.9444 130.261 32.7957C130.065 32.6387 129.845 32.5643 129.598 32.5643H129.42L129.403 32.4238H134.434V32.4321ZM131.51 32.8535V41.9184H134.434C135.267 41.9184 135.997 41.7283 136.635 41.3482C137.272 40.9681 137.765 40.4392 138.122 39.7534C138.47 39.0675 138.649 38.2825 138.649 37.3818C138.649 36.0184 138.258 34.9276 137.485 34.093C136.711 33.2584 135.691 32.8453 134.434 32.8453H131.51V32.8535Z" fill="black"/>
<path fill-rule="evenodd" clip-rule="evenodd" d="M44.5413 35.9973C44.5071 35.8753 44.5242 35.672 44.5242 35.5826C44.5242 35.4932 44.5242 35.3956 44.5413 35.2818C44.5498 35.168 44.5755 35.0135 44.6011 34.8184C44.6353 34.6232 44.6951 34.4281 44.7891 34.233C44.883 34.0378 44.9856 33.859 45.1052 33.6801C45.2248 33.5012 45.3786 33.3386 45.5751 33.1923C45.763 33.0459 45.9766 32.9077 46.2073 32.802C46.7028 32.5581 47.3009 32.4362 48.0015 32.4362C48.9242 32.4362 49.7614 32.6882 50.4876 33.1191L50.9661 32.5662C51.1113 32.3955 51.3762 32.3711 51.5556 32.5093C51.735 32.6475 51.7606 32.8996 51.6154 33.0703L51.154 33.6069C51.2907 33.7207 51.4189 33.8508 51.5471 33.9809C52.4441 34.9322 52.8201 36.0216 52.8201 37.5014C52.8201 38.9811 52.2476 40.1763 51.1882 41.1519C50.1288 42.1276 48.7191 42.778 47.0958 42.778C45.8912 42.778 44.9087 42.4446 44.0372 41.8674L43.4221 42.5747C43.2768 42.7455 43.012 42.7699 42.8326 42.6316C42.6532 42.4934 42.6275 42.2414 42.7728 42.0706L43.3794 41.3633C43.311 41.3064 43.2341 41.2413 43.1658 41.1763C42.0978 40.2007 41.5596 38.9404 41.5596 37.3875C41.5596 36.3875 41.7902 35.5013 42.2516 34.7208C42.713 33.9484 43.3794 33.3386 44.2423 32.8996C41.6792 34.607 41.7134 38.7535 43.7638 40.9161L49.9836 33.6882C47.9587 32.5012 44.9428 33.176 44.7549 36.0054L44.5327 35.9891L44.5413 35.9973ZM44.3875 41.469C47.4803 43.3309 50.6585 41.6235 51.641 39.0868C52.2818 37.4445 51.7692 35.5094 50.65 34.1923L44.3875 41.469Z" fill="black"/>
<path fill-rule="evenodd" clip-rule="evenodd" d="M29.2844 36.1189C29.9494 37.9818 30.9347 40.5474 31.7147 42.4865C31.8789 42.8845 31.6244 43.5619 32.1417 44.2732C32.2073 44.3494 32.232 44.4002 32.3059 44.4764C32.4208 44.6034 32.4454 44.578 32.4454 44.578C32.4537 44.578 32.4701 44.5865 32.4701 44.578C32.4783 44.5695 32.4865 44.578 32.4947 44.578C32.5932 44.3409 32.0678 44.18 31.961 43.2232C31.8214 41.9531 32.6261 40.5559 33.1926 39.5229L34.7115 37.1943C35.3684 36.1782 35.9924 35.4923 36.5343 34.2476C36.9612 33.24 37.1747 32.1477 36.9612 30.9029C36.4522 27.9562 32.544 27.6514 31.2139 29.6159C30.9593 29.9884 30.7294 30.4626 30.7048 31.0045C31.3124 31.013 30.8116 30.886 31.3781 30.0223C32.1417 28.8538 34.572 28.2695 35.861 30.2171C36.6739 31.4533 36.4275 33.3162 35.7625 34.6456L32.6753 39.7007L32.0431 40.6067C31.5916 39.5991 31.0004 37.9056 30.5734 36.8556C30.0808 35.6532 29.5061 33.8496 29.0134 32.6642L29.7113 32.4356V32.2662C29.621 32.2239 27.2974 32.2408 27.084 32.2831C27.1004 32.5033 27.125 32.4525 27.3796 32.4525C27.5356 32.4525 27.6916 32.4525 27.8558 32.461C27.9789 32.6472 28.1513 33.223 28.2499 33.4771C28.3648 33.8158 28.4962 34.1629 28.6193 34.5186C29.1694 36.0427 29.1777 35.6871 28.841 36.5338L26.9198 41.0894C26.46 40.0479 25.6307 37.8886 25.2202 36.8641C24.7276 35.6617 24.1528 33.8581 23.6602 32.6726L24.3581 32.444V32.2747C24.2678 32.2323 21.9442 32.2493 21.7307 32.2916C21.7471 32.5118 21.7718 32.461 22.0263 32.461C22.1823 32.461 22.3383 32.461 22.5025 32.4694C22.6257 32.6557 22.7981 33.2315 22.8966 33.4855C23.0116 33.8242 23.1429 34.1714 23.2661 34.527L26.5667 43.0369L29.2762 36.1189H29.2844Z" fill="black"/>
</svg>
